<?xml version="1.0" encoding="UTF-8"?>
<svg version="1.1" xmlns="http://www.w3.org/2000/svg" width="1024" height="1024">
<path d="M0 0 C337.92 0 675.84 0 1024 0 C1024 337.92 1024 675.84 1024 1024 C686.08 1024 348.16 1024 0 1024 C0 686.08 0 348.16 0 0 Z " fill="#FEFEFE" transform="translate(0,0)"/>
<path d="M0 0 C2.46679169 0.7862371 4.94699884 1.51779638 7.4309082 2.24804688 C10.88280458 3.27913281 14.21202648 4.403586 17.5246582 5.83007812 C21.27181491 7.44350356 25.02143769 9.03904107 28.80200195 10.57226562 C56.69784338 22.01290725 82.87954471 37.57424496 106.2121582 56.70507812 C106.73245605 57.13062988 107.25275391 57.55618164 107.78881836 57.99462891 C123.19928521 70.6543805 138.50576085 84.28903496 151.2121582 99.70507812 C151.62900879 100.20813477 152.04585937 100.71119141 152.4753418 101.22949219 C186.18523509 142.07505632 211.77964279 190.48641224 222.2121582 242.70507812 C222.47254883 243.87425781 222.73293945 245.0434375 223.0012207 246.24804688 C227.64447932 267.75243147 229.44221802 289.62153497 229.4621582 311.58007812 C229.46349762 312.45480774 229.46483704 313.32953735 229.46621704 314.23077393 C229.45907512 335.88851594 227.77405631 357.43111448 223.59936523 378.71435547 C223.21661771 380.68215074 222.8684623 382.6565718 222.52075195 384.63085938 C218.13477125 407.89162346 209.27936215 431.35240634 199.2121582 452.70507812 C198.88151367 453.40793945 198.55086914 454.11080078 198.21020508 454.83496094 C195.98382365 459.51567338 193.63558809 464.12366277 191.2121582 468.70507812 C190.83478516 469.42260254 190.45741211 470.14012695 190.06860352 470.87939453 C184.16504589 482.02652975 177.61789005 492.49792712 170.2121582 502.70507812 C169.7298877 503.3728125 169.24761719 504.04054688 168.75073242 504.72851562 C153.56131717 525.65593169 136.10779395 546.10936264 116.2121582 562.70507812 C115.40464111 563.38328613 115.40464111 563.38328613 114.58081055 564.07519531 C99.03514879 577.08881427 82.69624979 588.45276594 65.2121582 598.70507812 C64.49479492 599.13030762 63.77743164 599.55553711 63.03833008 599.99365234 C50.56511943 607.34696623 37.60092179 613.21983394 24.2121582 618.70507812 C23.33156738 619.06875488 22.45097656 619.43243164 21.54370117 619.80712891 C-1.21253047 629.12020803 -24.56642403 634.72353208 -48.7878418 638.70507812 C-49.93494629 638.89626221 -49.93494629 638.89626221 -51.10522461 639.09130859 C-65.78256837 641.49936621 -80.39229204 641.86905241 -95.22680664 641.83544922 C-98.01934301 641.83011347 -100.81171669 641.83541338 -103.60424805 641.84179688 C-120.15353021 641.8505681 -136.32822023 641.32356501 -152.6628418 638.45507812 C-153.96310303 638.22965332 -155.26336426 638.00422852 -156.60302734 637.77197266 C-187.22101044 632.37892379 -216.98888002 622.63797741 -244.7878418 608.70507812 C-246.05023682 608.08101074 -246.05023682 608.08101074 -247.33813477 607.44433594 C-272.23570139 595.06671658 -295.095464 579.25443137 -315.7878418 560.70507812 C-316.54605225 560.0314624 -316.54605225 560.0314624 -317.31958008 559.34423828 C-328.45125865 549.43454976 -339.42390969 539.15552119 -348.62768555 527.40039062 C-350.40836831 525.17856222 -352.23723503 523.0544912 -354.12768555 520.92773438 C-383.99074297 486.9644223 -403.07895707 444.67289683 -415.7878418 401.70507812 C-416.04936035 400.82464844 -416.31087891 399.94421875 -416.58032227 399.03710938 C-419.76735145 388.04948898 -421.72538888 376.86129631 -423.5378418 365.58007812 C-423.74892578 364.28231445 -423.96000977 362.98455078 -424.17749023 361.64746094 C-426.71310218 345.07230307 -427.05133913 328.38754376 -427.1003418 311.64257812 C-427.10329254 310.74097961 -427.10624329 309.8393811 -427.10928345 308.91046143 C-427.16226648 236.94684627 -401.95452712 165.75809273 -356.7878418 109.70507812 C-356.06467773 108.78984375 -355.34151367 107.87460937 -354.59643555 106.93164062 C-340.87286696 89.79559255 -325.20472292 73.09217107 -307.7878418 59.70507812 C-306.405108 58.60765948 -305.02371176 57.5085544 -303.64331055 56.40820312 C-294.32337733 49.01604774 -284.85778612 42.04058156 -274.7878418 35.70507812 C-274.19471191 35.3307666 -273.60158203 34.95645508 -272.99047852 34.57080078 C-237.35746624 12.2554698 -197.38132933 -3.63303162 -155.7878418 -10.29492188 C-154.67666992 -10.47684082 -153.56549805 -10.65875977 -152.4206543 -10.84619141 C-101.94458344 -18.80370631 -48.6556657 -15.82443855 0 0 Z " fill="#FEFEFE" transform="translate(610.787841796875,198.294921875)"/>
<path d="M0 0 C2.20383585 -0.00969571 4.40673525 -0.04070084 6.61035156 -0.07226562 C8.00878351 -0.07879652 9.40722215 -0.08404665 10.80566406 -0.08789062 C12.08231934 -0.09723633 13.35897461 -0.10658203 14.67431641 -0.11621094 C17.84472656 0.24023438 17.84472656 0.24023438 19.71166992 1.54833984 C21.5645674 4.31510984 22.240583 7.42401753 23.03222656 10.61523438 C23.20947266 11.27523438 23.38671875 11.93523437 23.56933594 12.61523438 C24.5013922 16.2283019 25.0535938 19.50943339 24.84472656 23.24023438 C25.49957031 23.3871875 26.15441406 23.53414063 26.82910156 23.68554688 C33.54785135 25.33676504 39.12712154 27.76469185 45.11816406 31.22851562 C47.76115897 32.49554711 47.76115897 32.49554711 50.26269531 31.66992188 C54.11334453 29.53779236 57.8786162 27.27162249 61.58496094 24.8984375 C64.43716634 23.18087993 66.54258954 22.25186995 69.88769531 22.12304688 C73.97047783 23.66555123 76.29241781 26.14051813 79.21972656 29.30273438 C79.765 29.87056641 80.31027344 30.43839844 80.87207031 31.0234375 C82.20797509 32.4179346 83.52799244 33.82762155 84.84472656 35.24023438 C84.10738281 35.96984375 83.37003906 36.69945312 82.61035156 37.45117188 C75.99575484 44.12182451 69.96110565 51.25101052 64.05957031 58.55273438 C61.26232175 61.94692664 58.33826777 65.21259888 55.37597656 68.46289062 C53.77633617 70.17285866 53.77633617 70.17285866 52.84472656 72.24023438 C49.55255338 70.79344975 47.31567827 68.96165703 44.71972656 66.49023438 C31.25821478 54.32860671 15.03487059 49.31191629 -2.96386719 49.86523438 C-16.45574725 50.74643951 -28.55173987 57.21889394 -39.15527344 65.24023438 C-38.53712265 65.24388 -37.91897186 65.24752563 -37.28208923 65.25128174 C-30.77517769 65.29349978 -24.268946 65.36311232 -17.76245117 65.44775391 C-15.34292441 65.47576253 -12.92330957 65.49707567 -10.50366211 65.51123047 C9.14280995 65.63298097 25.47078714 66.09896914 41.20800781 79.20898438 C41.748125 79.87929688 42.28824219 80.54960937 42.84472656 81.24023438 C42.26653293 86.21666948 38.64102399 89.37468192 35.46972656 92.99023438 C34.87933594 93.68761719 34.28894531 94.385 33.68066406 95.10351562 C33.10832031 95.76222656 32.53597656 96.4209375 31.94628906 97.09960938 C31.42373535 97.70256836 30.90118164 98.30552734 30.36279297 98.92675781 C28.84472656 100.24023438 28.84472656 100.24023438 25.84472656 100.24023438 C25.16410156 99.33273437 24.48347656 98.42523438 23.78222656 97.49023438 C19.84294371 92.54206978 14.05323762 90.65897621 7.90496826 89.85656738 C4.68940049 89.68612889 1.49445212 89.63443098 -1.72558594 89.63085938 C-2.88782684 89.61432312 -4.05006775 89.59778687 -5.24752808 89.58074951 C-8.92516504 89.53253262 -12.60238926 89.51095621 -16.28027344 89.49023438 C-18.78810641 89.46205284 -21.29592037 89.43212239 -23.80371094 89.40039062 C-29.92086443 89.32678016 -36.03779231 89.27704462 -42.15527344 89.24023438 C-42.48527344 82.64023437 -42.81527344 76.04023438 -43.15527344 69.24023438 C-55.92078283 85.24475362 -60.8352765 100.79039712 -59.15527344 121.24023438 C-56.85160601 137.41389945 -49.16919193 150.89793063 -36.67480469 161.30664062 C-30.92065883 165.54220427 -24.8091348 168.66728232 -18.15527344 171.24023438 C-17.32769531 171.56121094 -16.50011719 171.8821875 -15.64746094 172.21289062 C0.34175106 177.46928295 17.92038383 174.45558762 32.65722656 167.05273438 C45.00585854 159.8932352 53.20326249 149.32074788 61.84472656 138.24023438 C62.48023438 137.42554688 63.11574219 136.61085938 63.77050781 135.77148438 C64.82362939 134.41261782 65.87439758 133.05192427 66.92285156 131.68945312 C69.60261787 128.27438509 72.35085514 124.91638116 75.09472656 121.55273438 C79.44969759 116.21066179 83.77148824 110.84534768 88.03222656 105.42773438 C88.48952148 104.84741455 88.94681641 104.26709473 89.41796875 103.66918945 C91.3220046 101.23983983 93.13141424 98.81020286 94.84472656 96.24023438 C102.27999092 99.25408318 106.83934075 108.04603769 111.22753906 114.45117188 C111.84472656 116.24023438 111.84472656 116.24023438 111.14550781 118.22070312 C106.79427129 124.97622649 101.38586101 130.98885529 96.17724609 137.08740234 C92.29942227 141.64993529 88.59356544 146.3308357 84.91796875 151.05688477 C81.03370273 156.0378765 77.01177367 160.8896753 72.93847656 165.71679688 C71.16975503 167.8485023 69.4809138 170.00620949 67.84472656 172.24023438 C69.19626484 175.19422943 70.74152506 177.47580914 72.88378906 179.91210938 C73.46386719 180.57597656 74.04394531 181.23984375 74.64160156 181.92382812 C75.24488281 182.60574219 75.84816406 183.28765625 76.46972656 183.99023438 C77.38625 185.03630859 77.38625 185.03630859 78.32128906 186.10351562 C79.8253646 187.81910178 81.33325154 189.53116846 82.84472656 191.24023438 C82.44060547 191.71074219 82.03648437 192.18125 81.62011719 192.66601562 C81.08580078 193.28863281 80.55148437 193.91125 80.00097656 194.55273438 C79.20916992 195.47505859 79.20916992 195.47505859 78.40136719 196.41601562 C77.03755316 198.01426193 75.68978125 199.62616875 74.34472656 201.24023438 C71.84472656 203.24023438 71.84472656 203.24023438 69.12207031 203.15429688 C64.46017705 201.85407873 60.97079682 199.15091457 57.14355469 196.30273438 C54.00879301 194.12263434 52.16797018 193.2363011 48.31347656 193.28320312 C44.72993004 194.27190684 41.61605562 195.53689673 38.28222656 197.17773438 C35.01340621 198.77486509 32.12068859 200.17215273 28.58300781 201.04492188 C25.59009962 202.00250044 25.59009962 202.00250044 24.45410156 205.03320312 C24.02871094 206.71349609 24.02871094 206.71349609 23.59472656 208.42773438 C23.12679687 210.17570312 23.12679687 210.17570312 22.64941406 211.95898438 C22.38386719 213.04179688 22.11832031 214.12460937 21.84472656 215.24023438 C20.05739625 222.02756469 20.05739625 222.02756469 17.84472656 224.24023438 C14.77197266 224.46728516 14.77197266 224.46728516 10.86816406 224.43554688 C10.18291656 224.43271698 9.49766907 224.42988708 8.79165649 224.42697144 C6.60083629 224.41576719 4.41042341 224.39066296 2.21972656 224.36523438 C0.73535746 224.35520485 -0.74901804 224.34607895 -2.23339844 224.33789062 C-5.87415604 224.31582732 -9.514675 224.28129613 -13.15527344 224.24023438 C-15.39315813 219.24245381 -16.50741053 215.14403528 -17.34277344 209.67773438 C-18.05541071 206.2716191 -18.85418887 203.19913292 -21.7890625 201.03613281 C-25.7457517 199.0747483 -29.89576416 197.97529998 -34.16162109 196.89892578 C-36.31618965 196.18706857 -37.95512316 195.20248997 -39.85449219 193.97070312 C-42.92217655 191.92392618 -42.92217655 191.92392618 -45.65917969 192.72851562 C-46.48289062 193.22738281 -47.30660156 193.72625 -48.15527344 194.24023438 C-49.25742187 194.89378906 -50.35957031 195.54734375 -51.49511719 196.22070312 C-53.30613408 197.32556228 -55.10889321 198.43805592 -56.89550781 199.58203125 C-59.76340154 201.30903611 -61.68056518 202.26225816 -65.06005859 202.10546875 C-70.85501983 200.485549 -74.45932299 195.73312252 -78.59277344 191.55273438 C-79.52798828 190.65361328 -80.46320313 189.75449219 -81.42675781 188.828125 C-82.30525391 187.94962891 -83.18375 187.07113281 -84.08886719 186.16601562 C-84.89380615 185.36591064 -85.69874512 184.56580566 -86.52807617 183.74145508 C-88.15527344 181.24023438 -88.15527344 181.24023438 -88.04077148 178.1472168 C-87.2668481 175.60652041 -86.60096938 173.91760659 -85.05371094 171.80273438 C-84.64636719 171.2175 -84.23902344 170.63226562 -83.81933594 170.02929688 C-82.95728314 168.83287208 -82.09004787 167.640165 -81.21777344 166.45117188 C-79.19245787 163.52284937 -78.14267724 161.74093339 -78.23339844 158.13476562 C-79.47336187 154.24149062 -81.13995579 150.71915192 -82.94433594 147.06054688 C-84.10026376 144.36835368 -84.47901432 142.17287907 -84.90527344 139.30273438 C-85.42250248 137.00707368 -85.42250248 137.00707368 -87.15527344 135.24023438 C-91.86980307 133.24686979 -97.03457812 132.51997541 -102.07470703 131.80517578 C-104.97556869 131.01749755 -106.82449752 130.17408114 -109.15527344 128.24023438 C-109.80224609 125.00976562 -109.80224609 125.00976562 -109.81933594 121.05273438 C-109.82411957 120.3538208 -109.8289032 119.65490723 -109.83383179 118.93481445 C-109.83723056 117.45879869 -109.82802905 115.98270764 -109.80712891 114.50683594 C-109.7803535 112.24699137 -109.80686722 109.99211192 -109.83886719 107.73242188 C-109.83556307 106.29751508 -109.82915678 104.86261137 -109.81933594 103.42773438 C-109.81369629 102.12191406 -109.80805664 100.81609375 -109.80224609 99.47070312 C-109.15527344 96.24023438 -109.15527344 96.24023438 -106.81323242 94.3503418 C-103.76460788 93.07707131 -100.82067576 92.2596562 -97.59277344 91.55273438 C-96.47773438 91.30136719 -95.36269531 91.05 -94.21386719 90.79101562 C-91.15527344 90.24023438 -91.15527344 90.24023438 -87.15527344 90.24023438 C-87.00832031 89.58539063 -86.86136719 88.93054688 -86.70996094 88.25585938 C-85.06678667 81.56983994 -82.65623062 75.95859206 -79.26464844 69.96679688 C-77.92112374 66.66475377 -77.93257858 65.57033827 -79.15527344 62.24023438 C-80.96760901 58.97673052 -83.02591608 55.87401552 -85.09277344 52.76757812 C-86.84502516 50.00527047 -88.08900295 47.99478785 -88.37792969 44.70507812 C-86.41423716 40.74632418 -83.2519767 38.19470104 -79.96777344 35.30273438 C-78.64004177 34.1071282 -77.31320857 32.91052345 -75.98730469 31.71289062 C-75.01398193 30.85074951 -75.01398193 30.85074951 -74.02099609 29.97119141 C-72.22677813 28.30657411 -70.61741148 26.55256716 -68.97949219 24.73632812 C-66.15527344 22.24023438 -66.15527344 22.24023438 -63.77636719 22.07226562 C-59.31927616 24.05836133 -55.23154832 26.63974577 -51.12597656 29.265625 C-46.86725441 31.87525366 -46.86725441 31.87525366 -41.98730469 31.66601562 C-40.58544922 30.96025391 -40.58544922 30.96025391 -39.15527344 30.24023438 C-37.81335938 29.63695312 -37.81335938 29.63695312 -36.44433594 29.02148438 C-35.56519531 28.59867187 -34.68605469 28.17585938 -33.78027344 27.74023438 C-29.26244993 25.64510145 -25.02382775 24.25068904 -20.15527344 23.24023438 C-19.97351563 22.23863281 -19.79175781 21.23703125 -19.60449219 20.20507812 C-19.35100794 18.86255046 -19.09707776 17.52010694 -18.84277344 16.17773438 C-18.72482422 15.52095703 -18.606875 14.86417969 -18.48535156 14.1875 C-15.99748173 1.23781854 -12.71271905 0.03394585 0 0 Z " fill="#3C95C9" transform="translate(445.1552734375,346.759765625)"/>
<path d="M0 0 C19.20080207 16.09210078 33.65759455 36.7045932 36.0625 62.375 C37.93822903 90.06351378 29.99646097 114.40314532 11.76049805 135.41308594 C-2.05651158 150.69413533 -23.72536209 162.13170433 -44.53027344 163.55200195 C-70.32769128 164.12340611 -92.87678613 160.17365378 -112.46777344 141.95166016 C-115.70679944 138.83721208 -118.84227237 135.63187395 -121.9375 132.375 C-120.45921919 127.74132448 -117.7734938 124.47925186 -114.625 120.875 C-114.15126953 120.31941406 -113.67753906 119.76382813 -113.18945312 119.19140625 C-110.2428723 115.76514948 -107.17072493 112.53166405 -103.9375 109.375 C-103.13699219 110.33599609 -103.13699219 110.33599609 -102.3203125 111.31640625 C-92.40082317 122.83193799 -78.55350818 132.8752919 -62.9375 134.375 C-44.65878184 135.43996769 -27.58301646 131.18411949 -13.4375 119.0625 C0.07320646 105.82427838 6.14484762 91.11852367 6.375 72.4375 C6.28754887 55.15608614 -0.11165936 40.8689978 -11.890625 28.2890625 C-23.5586385 17.00998278 -40.0248216 11.43111637 -56.0625 10.875 C-74.06024167 11.5082917 -89.13083316 20.06691513 -101.41162109 32.72167969 C-104.8795267 36.47922477 -107.9716109 40.51674157 -111.05078125 44.59375 C-114.267037 48.85052593 -117.65848277 52.95533109 -121.0625 57.0625 C-121.66368652 57.78969238 -122.26487305 58.51688477 -122.88427734 59.26611328 C-124.04628513 60.67157719 -125.20870372 62.07670159 -126.37158203 63.48144531 C-130.99074971 69.06708057 -135.57189025 74.68389764 -140.12890625 80.3203125 C-152.98979634 96.22158473 -152.98979634 96.22158473 -156.9375 100.375 C-157.76314453 101.25671875 -157.76314453 101.25671875 -158.60546875 102.15625 C-169.59095807 112.83723749 -184.25730721 116.53047644 -199.125 116.5 C-201.373125 116.45875 -203.62125 116.4175 -205.9375 116.375 C-205.9375 107.135 -205.9375 97.895 -205.9375 88.375 C-203.50375 88.313125 -201.07 88.25125 -198.5625 88.1875 C-189.09033039 87.69405803 -182.42276732 85.40000815 -175.875 78.25 C-174.54616983 76.63832645 -173.23431391 75.0125454 -171.9375 73.375 C-170.45847996 71.58321229 -168.97930824 69.79154977 -167.5 68 C-165.97798733 66.12595719 -164.45713898 64.25096812 -162.9375 62.375 C-161.54281727 60.66572718 -160.14696813 58.95740549 -158.75 57.25 C-157.64591797 55.90035156 -157.64591797 55.90035156 -156.51953125 54.5234375 C-152.72201521 49.888614 -148.90893717 45.26657094 -145.09765625 40.64306641 C-141.80383915 36.64610491 -138.52044603 32.64113121 -135.25 28.625 C-133.8145984 26.87327842 -132.37701292 25.12334459 -130.9375 23.375 C-130.51404297 22.8598584 -130.09058594 22.3447168 -129.65429688 21.81396484 C-112.71424382 1.27262713 -94.50383278 -14.08323401 -67.19482422 -17.4140625 C-43.1386542 -19.6620109 -19.47959444 -14.98191738 0 0 Z " fill="#E75930" transform="translate(646.9375,388.625)"/>
<path d="M0 0 C2.46679169 0.7862371 4.94699884 1.51779638 7.4309082 2.24804688 C10.88280458 3.27913281 14.21202648 4.403586 17.5246582 5.83007812 C21.27181491 7.44350356 25.02143769 9.03904107 28.80200195 10.57226562 C56.69784338 22.01290725 82.87954471 37.57424496 106.2121582 56.70507812 C106.73245605 57.13062988 107.25275391 57.55618164 107.78881836 57.99462891 C123.19928521 70.6543805 138.50576085 84.28903496 151.2121582 99.70507812 C151.62900879 100.20813477 152.04585937 100.71119141 152.4753418 101.22949219 C186.18523509 142.07505632 211.77964279 190.48641224 222.2121582 242.70507812 C222.47254883 243.87425781 222.73293945 245.0434375 223.0012207 246.24804688 C227.64447932 267.75243147 229.44221802 289.62153497 229.4621582 311.58007812 C229.46349762 312.45480774 229.46483704 313.32953735 229.46621704 314.23077393 C229.45907512 335.88851594 227.77405631 357.43111448 223.59936523 378.71435547 C223.21661771 380.68215074 222.8684623 382.6565718 222.52075195 384.63085938 C218.13477125 407.89162346 209.27936215 431.35240634 199.2121582 452.70507812 C198.88151367 453.40793945 198.55086914 454.11080078 198.21020508 454.83496094 C195.98382365 459.51567338 193.63558809 464.12366277 191.2121582 468.70507812 C190.83478516 469.42260254 190.45741211 470.14012695 190.06860352 470.87939453 C184.16504589 482.02652975 177.61789005 492.49792712 170.2121582 502.70507812 C169.7298877 503.3728125 169.24761719 504.04054688 168.75073242 504.72851562 C153.56131717 525.65593169 136.10779395 546.10936264 116.2121582 562.70507812 C115.40464111 563.38328613 115.40464111 563.38328613 114.58081055 564.07519531 C99.03514879 577.08881427 82.69624979 588.45276594 65.2121582 598.70507812 C64.49479492 599.13030762 63.77743164 599.55553711 63.03833008 599.99365234 C50.56511943 607.34696623 37.60092179 613.21983394 24.2121582 618.70507812 C23.33156738 619.06875488 22.45097656 619.43243164 21.54370117 619.80712891 C-1.21253047 629.12020803 -24.56642403 634.72353208 -48.7878418 638.70507812 C-49.93494629 638.89626221 -49.93494629 638.89626221 -51.10522461 639.09130859 C-65.78256837 641.49936621 -80.39229204 641.86905241 -95.22680664 641.83544922 C-98.01934301 641.83011347 -100.81171669 641.83541338 -103.60424805 641.84179688 C-120.15353021 641.8505681 -136.32822023 641.32356501 -152.6628418 638.45507812 C-153.96310303 638.22965332 -155.26336426 638.00422852 -156.60302734 637.77197266 C-187.22101044 632.37892379 -216.98888002 622.63797741 -244.7878418 608.70507812 C-246.05023682 608.08101074 -246.05023682 608.08101074 -247.33813477 607.44433594 C-272.23570139 595.06671658 -295.095464 579.25443137 -315.7878418 560.70507812 C-316.54605225 560.0314624 -316.54605225 560.0314624 -317.31958008 559.34423828 C-328.45125865 549.43454976 -339.42390969 539.15552119 -348.62768555 527.40039062 C-350.40836831 525.17856222 -352.23723503 523.0544912 -354.12768555 520.92773438 C-383.99074297 486.9644223 -403.07895707 444.67289683 -415.7878418 401.70507812 C-416.04936035 400.82464844 -416.31087891 399.94421875 -416.58032227 399.03710938 C-419.76735145 388.04948898 -421.72538888 376.86129631 -423.5378418 365.58007812 C-423.74892578 364.28231445 -423.96000977 362.98455078 -424.17749023 361.64746094 C-426.71310218 345.07230307 -427.05133913 328.38754376 -427.1003418 311.64257812 C-427.10329254 310.74097961 -427.10624329 309.8393811 -427.10928345 308.91046143 C-427.16226648 236.94684627 -401.95452712 165.75809273 -356.7878418 109.70507812 C-356.06467773 108.78984375 -355.34151367 107.87460937 -354.59643555 106.93164062 C-340.87286696 89.79559255 -325.20472292 73.09217107 -307.7878418 59.70507812 C-306.405108 58.60765948 -305.02371176 57.5085544 -303.64331055 56.40820312 C-294.32337733 49.01604774 -284.85778612 42.04058156 -274.7878418 35.70507812 C-274.19471191 35.3307666 -273.60158203 34.95645508 -272.99047852 34.57080078 C-237.35746624 12.2554698 -197.38132933 -3.63303162 -155.7878418 -10.29492188 C-154.67666992 -10.47684082 -153.56549805 -10.65875977 -152.4206543 -10.84619141 C-101.94458344 -18.80370631 -48.6556657 -15.82443855 0 0 Z M-192.1081543 3.47851562 C-194.52429671 4.28389643 -196.95718386 5.04097984 -199.4050293 5.74414062 C-240.68274456 17.67262799 -279.36216939 40.93801146 -311.32543945 69.40576172 C-312.61897171 70.55504029 -313.92698486 71.68797509 -315.23706055 72.81835938 C-327.71125815 83.7253403 -339.68534737 95.55641172 -349.7878418 108.70507812 C-351.01760742 110.20941406 -351.01760742 110.20941406 -352.2722168 111.74414062 C-381.98740319 148.19643948 -403.30491728 191.92283059 -413.7878418 237.70507812 C-414.01310547 238.66446289 -414.23836914 239.62384766 -414.47045898 240.61230469 C-416.09777438 247.61138587 -417.51872599 254.63247374 -418.7878418 261.70507812 C-419.03775879 263.06608643 -419.03775879 263.06608643 -419.29272461 264.45458984 C-425.62834594 300.92704349 -423.56974921 340.44830833 -416.7878418 376.70507812 C-416.46686523 378.46730713 -416.46686523 378.46730713 -416.1394043 380.26513672 C-407.93511904 423.79975843 -388.63742094 465.92531964 -362.7878418 501.70507812 C-362.36905762 502.28966797 -361.95027344 502.87425781 -361.51879883 503.4765625 C-345.14647058 526.23993377 -325.19618506 548.7978122 -302.7878418 565.70507812 C-301.48324811 566.72436687 -300.17997527 567.74534737 -298.87768555 568.76757812 C-251.17278931 606.01369498 -194.93451467 628.99440239 -134.7878418 635.70507812 C-134.03466675 635.79240707 -133.2814917 635.87973602 -132.50549316 635.9697113 C-126.33829981 636.64356188 -120.24303971 636.87899888 -114.04174805 636.90820312 C-113.04129959 636.91526276 -112.04085114 636.92232239 -111.01008606 636.92959595 C-79.78184902 637.11912937 -79.78184902 637.11912937 -48.7878418 633.70507812 C-47.56581055 633.50640137 -46.3437793 633.30772461 -45.0847168 633.10302734 C-27.1476623 630.12170666 -9.93196012 625.81293355 7.2121582 619.70507812 C8.20231934 619.36105957 9.19248047 619.01704102 10.21264648 618.66259766 C48.06907827 605.46115949 84.39244093 585.40061751 113.84106445 557.90039062 C115.83834431 556.05117929 117.86949695 554.27043873 119.9309082 552.49414062 C131.31909538 542.5571422 141.96277206 531.65576374 151.2121582 519.70507812 C152.11105363 518.61498585 153.0136475 517.52793668 153.91918945 516.44335938 C183.53682146 480.72971892 203.35972779 438.35713432 215.2121582 393.70507812 C215.46416992 392.78033691 215.71618164 391.8555957 215.97583008 390.90283203 C217.97582839 383.30565173 219.33320675 375.65375185 220.51977539 367.89697266 C220.83592544 365.83810629 221.16408568 363.78140499 221.4934082 361.72460938 C223.86204136 346.67349019 224.39872944 331.78700059 224.39746094 316.57641602 C224.39963625 313.671886 224.41782917 310.76774398 224.43676758 307.86328125 C224.64921438 237.72352376 199.58436168 168.6596314 156.2121582 113.70507812 C155.5109082 112.81175781 154.8096582 111.9184375 154.0871582 110.99804688 C140.30676895 93.79716814 124.63283603 77.22999256 107.2121582 63.70507812 C106.08589973 62.78110715 104.96237249 61.8538006 103.84106445 60.92382812 C84.18853548 44.7132675 62.22444544 31.57013332 39.2121582 20.70507812 C38.52895508 20.37942871 37.84575195 20.0537793 37.1418457 19.71826172 C21.37365996 12.25964803 4.93857122 6.60439973 -11.7878418 1.70507812 C-12.4689502 1.50003662 -13.15005859 1.29499512 -13.85180664 1.08374023 C-24.70464565 -2.14961854 -35.6815783 -4.26197202 -46.8503418 -6.04492188 C-47.51633392 -6.15165222 -48.18232605 -6.25838257 -48.86849976 -6.36834717 C-60.73513902 -8.25418124 -72.26599921 -9.45326047 -84.28393555 -9.53320312 C-86.06442039 -9.54531075 -86.06442039 -9.54531075 -87.88087463 -9.55766296 C-90.39127169 -9.57143733 -92.90168695 -9.58218892 -95.41210938 -9.59008789 C-97.92388589 -9.60150579 -100.43564017 -9.62179144 -102.94726562 -9.65161133 C-132.97191036 -10.00680341 -163.53344638 -6.13254067 -192.1081543 3.47851562 Z " fill="#DADADA" transform="translate(610.787841796875,198.294921875)"/>
<path d="M0 0 C0.86044922 0.19819336 1.72089844 0.39638672 2.60742188 0.60058594 C50.80565503 12.0095348 94.9467575 37.64643445 132 70 C132.79019531 70.67804688 133.58039062 71.35609375 134.39453125 72.0546875 C146.87043865 82.9790766 158.94085453 94.79860673 169 108 C169.76957031 108.96421875 170.53914062 109.9284375 171.33203125 110.921875 C223.78660763 176.94372849 245.8852745 261.83311007 236.84996033 345.22912598 C232.74529735 380.11800064 222.55445001 414.49259754 207 446 C206.38801758 447.25055176 206.38801758 447.25055176 205.76367188 448.52636719 C195.39313108 469.52869141 182.88121946 488.92029882 168 507 C167.24614014 507.9273999 167.24614014 507.9273999 166.47705078 508.87353516 C159.42506561 517.50093896 151.72379653 525.47517702 143.875 533.375 C142.96878906 534.29055664 142.06257812 535.20611328 141.12890625 536.14941406 C135.06013098 542.18964588 128.7250779 547.70392162 122 553 C121.2682959 553.58040039 120.5365918 554.16080078 119.78271484 554.75878906 C86.93325547 580.61550297 49.67207735 600.78579828 9.11816406 611.43408203 C7.1839754 611.95084659 5.2593057 612.50290848 3.3359375 613.05859375 C-44.09381237 626.57239166 -96.97247325 626.76910848 -145 616 C-145.8343457 615.82243164 -146.66869141 615.64486328 -147.52832031 615.46191406 C-192.53419838 605.88001744 -234.88151419 585.40207875 -271 557 C-271.99515625 556.21882812 -272.9903125 555.43765625 -274.015625 554.6328125 C-284.87559743 545.91380607 -294.80717287 536.29579142 -304.6875 526.5 C-305.56647949 525.63407227 -306.44545898 524.76814453 -307.35107422 523.87597656 C-327.66142384 503.59234606 -343.42781473 479.1614214 -357 454 C-357.49016602 453.09773682 -357.49016602 453.09773682 -357.99023438 452.17724609 C-373.33047327 423.65155845 -383.76566052 392.13190259 -388.66650391 360.13574219 C-389.09494638 357.39195391 -389.61648431 354.66742635 -390.125 351.9375 C-390.4345964 349.9610587 -390.72431908 347.98145658 -391 346 C-391.13535156 345.04939697 -391.13535156 345.04939697 -391.2734375 344.07958984 C-399.66449086 282.23809355 -386.90797844 216.7911523 -357.95458984 161.81933594 C-356.99145977 159.98372333 -356.05117436 158.13767748 -355.11328125 156.2890625 C-343.4726493 133.59399607 -328.10089413 112.85706379 -311 94 C-310.43861328 93.37689941 -309.87722656 92.75379883 -309.29882812 92.11181641 C-298.2712343 79.90448284 -298.2712343 79.90448284 -291.9765625 74.671875 C-290.53769923 73.45481279 -289.14153919 72.18672133 -287.7734375 70.890625 C-256.10692838 40.89077425 -216.01492842 19.85156619 -175 6 C-173.77925781 5.57976562 -172.55851563 5.15953125 -171.30078125 4.7265625 C-116.20188434 -13.27961296 -56.04569191 -13.06341236 0 0 Z M-128 -2 C-129.05977051 -1.79600586 -130.11954102 -1.59201172 -131.21142578 -1.38183594 C-139.19502811 0.19991887 -147.10367598 2.03114297 -155 4 C-156.06250977 4.26296875 -157.12501953 4.5259375 -158.21972656 4.796875 C-179.45100971 10.14566384 -199.86875984 17.75800726 -219.20996094 28.05419922 C-220.99628218 28.99803562 -222.7961167 29.90977334 -224.6015625 30.81640625 C-241.50578023 39.41269481 -257.09158164 50.33142715 -272 62 C-272.9590625 62.74507813 -273.918125 63.49015625 -274.90625 64.2578125 C-283.01241836 70.71890552 -290.51972923 77.83432006 -298 85 C-298.79035645 85.75531006 -298.79035645 85.75531006 -299.59667969 86.52587891 C-305.43225641 92.13377247 -310.79965386 97.94585432 -315.8359375 104.28125 C-317.230137 106.03280749 -318.65042425 107.76406714 -320.1015625 109.46875 C-348.61704887 143.06517757 -369.92034562 186.09200369 -380.0625 228.8125 C-380.23331085 229.52355896 -380.4041217 230.23461792 -380.58010864 230.96722412 C-382.85322415 240.46744006 -384.88161624 249.97701376 -386.4375 259.625 C-386.58904541 260.5631958 -386.74059082 261.5013916 -386.89672852 262.46801758 C-389.14163311 277.50368863 -389.24069288 292.64425489 -389.25 307.8125 C-389.25067474 308.80655853 -389.25134949 309.80061707 -389.25204468 310.82479858 C-389.23529136 326.4077354 -388.6984748 341.61474466 -386 357 C-385.74259033 358.47823242 -385.74259033 358.47823242 -385.47998047 359.98632812 C-371.08603173 439.78977582 -326.48151746 514.71415292 -259.625 561.625 C-257.42568955 563.10031384 -255.22083139 564.55810355 -253 566 C-252.31244629 566.45052734 -251.62489258 566.90105469 -250.91650391 567.36523438 C-226.03016899 583.61266506 -199.63933169 597.59726209 -171 606 C-169.94554687 606.33 -168.89109375 606.66 -167.8046875 607 C-143.15883115 614.45784778 -117.11821895 619.04531346 -91.3515625 619.23828125 C-90.26844284 619.24798447 -89.18532318 619.25768768 -88.06938171 619.26768494 C-84.58788303 619.29248795 -81.10657806 619.30519362 -77.625 619.3125 C-75.84505142 619.31642761 -75.84505142 619.31642761 -74.02914429 619.32043457 C-56.00092571 619.32470135 -38.71223527 618.59828797 -21 615 C-20.14696289 614.8345166 -19.29392578 614.6690332 -18.41503906 614.49853516 C-13.94591223 613.620639 -9.52335895 612.61991892 -5.10595703 611.51220703 C-2.94128817 610.98572022 -0.76956039 610.51850778 1.41015625 610.05859375 C47.15002083 600.03599101 91.04251774 575.79587723 126 545 C127.10214844 544.04673828 127.10214844 544.04673828 128.2265625 543.07421875 C130.16321898 541.39604033 132.08427391 539.7020196 134 538 C134.81210937 537.28070312 135.62421875 536.56140625 136.4609375 535.8203125 C144.17070622 528.94403229 151.28544662 521.8468114 158 514 C159.20269531 512.63101562 159.20269531 512.63101562 160.4296875 511.234375 C185.4529615 482.5293032 203.40828194 449.40115412 217 414 C217.32371582 413.15888672 217.64743164 412.31777344 217.98095703 411.45117188 C225.8165089 390.84477407 229.71309516 369.73284028 233 348 C233.28472168 346.31886108 233.28472168 346.31886108 233.57519531 344.60375977 C235.45426029 332.58900486 235.39689618 320.57296179 235.375 308.4375 C235.37445618 307.30649872 235.37391235 306.17549744 235.37335205 305.01022339 C235.33354873 286.99125987 234.39296179 269.73180033 231 252 C230.79101074 250.84177734 230.58202148 249.68355469 230.36669922 248.49023438 C224.80297724 218.03354509 214.24242685 189.264359 199.95751953 161.85009766 C199.02486966 160.0480526 198.1180825 158.23489694 197.21484375 156.41796875 C186.60816084 135.42164867 172.26831091 115.50206341 156.1953125 98.34375 C154.23613237 96.25209861 152.35968259 94.11722099 150.5 91.9375 C143.91744117 84.37917362 136.69290753 77.41695025 129 71 C128.19248291 70.32179199 128.19248291 70.32179199 127.36865234 69.62988281 C95.94445567 43.32398936 60.80239661 23.28840267 22 10 C20.62158936 9.52288574 20.62158936 9.52288574 19.21533203 9.03613281 C7.45668118 5.02935736 -4.44942985 2.09066455 -16.625 -0.3125 C-18.44463257 -0.67637817 -18.44463257 -0.67637817 -20.30102539 -1.04760742 C-39.35634089 -4.62831068 -58.39979076 -5.38097428 -77.75 -5.3125 C-78.85006378 -5.31034485 -79.95012756 -5.3081897 -81.08352661 -5.30596924 C-96.89777324 -5.25627278 -112.42733779 -5.02869249 -128 -2 Z " fill="#DBDBDB" transform="translate(589,205)"/>
<path d="M0 0 C8.38504225 6.04846963 13.49964211 13.30569581 16.3125 23.3125 C17.76015635 33.11592722 15.12874312 41.88862435 10.625 50.5625 C4.54229368 57.79598859 -1.60324378 62.53544758 -10.6875 65.3125 C-11.27660156 65.50328125 -11.86570312 65.6940625 -12.47265625 65.890625 C-23.6917733 68.02759968 -34.38243858 66.81251333 -44.078125 60.83984375 C-52.79754931 54.7333595 -57.79879063 45.71588276 -59.6875 35.3125 C-60.89531465 25.4352602 -58.70382524 17.23234415 -53.11328125 8.9921875 C-49.05503663 4.01634445 -44.26006924 0.45073636 -38.6875 -2.6875 C-38.09710937 -3.02910156 -37.50671875 -3.37070312 -36.8984375 -3.72265625 C-25.66993095 -9.04012081 -10.16559386 -6.25968615 0 0 Z " fill="#EA5D33" transform="translate(568.6875,632.6875)"/>
<path d="M0 0 C8.53875 -0.0928125 8.53875 -0.0928125 17.25 -0.1875 C19.02020508 -0.21481201 20.79041016 -0.24212402 22.61425781 -0.27026367 C36.33523388 -0.39527705 47.9787861 1.0653266 59 10 C66.8796542 18.18519181 68.6056828 26.38731193 68.54858398 37.36230469 C68.24816186 47.39107497 64.95795298 54.4840884 57.75 61.5 C51.39798451 66.66974526 43.23746816 70.14038139 34.96582031 70.11352539 C34.17449707 70.11340454 33.38317383 70.11328369 32.56787109 70.11315918 C31.74625488 70.10804321 30.92463867 70.10292725 30.078125 70.09765625 C29.3154834 70.09664917 28.5528418 70.09564209 27.76708984 70.09460449 C24.92804452 70.0893867 22.08902069 70.07542544 19.25 70.0625 C12.8975 70.041875 6.545 70.02125 0 70 C0 46.9 0 23.8 0 0 Z " fill="#479ACC" transform="translate(294,628)"/>
<path d="M0 0 C5.713125 -0.061875 11.42625 -0.12375 17.3125 -0.1875 C19.09180908 -0.21481201 20.87111816 -0.24212402 22.7043457 -0.27026367 C44.41691129 -0.4689886 44.41691129 -0.4689886 52 6.8125 C52.70125 7.45832031 53.4025 8.10414063 54.125 8.76953125 C59.09673631 14.68382591 59.60010949 19.95384804 59.40234375 27.453125 C58.68880009 33.74339337 56.68402135 38.46658506 52.05078125 42.83984375 C40.49727279 51.32347922 27.66399178 50.27511393 14 50 C14 56.6 14 63.2 14 70 C9.38 70 4.76 70 0 70 C0 46.9 0 23.8 0 0 Z " fill="#EA5E34" transform="translate(598,628)"/>
<path d="M0 0 C17.16 0 34.32 0 52 0 C52 3.3 52 6.6 52 10 C39.13 10 26.26 10 13 10 C13 15.94 13 21.88 13 28 C24.22 28 35.44 28 47 28 C47 31.63 47 35.26 47 39 C35.78 39 24.56 39 13 39 C13 45.27 13 51.54 13 58 C26.53 58 40.06 58 54 58 C54 61.63 54 65.26 54 69 C36.18 69 18.36 69 0 69 C0 46.23 0 23.46 0 0 Z " fill="#4499CD" transform="translate(376,629)"/>
<path d="M0 0 C-1.21294604 3.72547711 -2.52812198 7.36977984 -4 11 C-4.96679688 10.6390625 -5.93359375 10.278125 -6.9296875 9.90625 C-15.71097597 6.73196344 -23.90725157 3.78688243 -33.0625 7.375 C-36.07588901 8.67996519 -36.07588901 8.67996519 -37 11 C-37.47681706 15.38422688 -37.47681706 15.38422688 -35.34277344 19.0769043 C-32.64272637 21.29327265 -30.56926143 22.00235049 -27.203125 22.89453125 C-26.0790625 23.21099609 -24.955 23.52746094 -23.796875 23.85351562 C-21.44979447 24.48810623 -19.10084307 25.115821 -16.75 25.73632812 C-9.45464141 27.8058448 -4.00799736 30.1510693 1 36 C3.2430276 40.39259571 3.94378573 45.13521353 3 50 C0.64805239 56.06506175 -2.28853563 60.07519723 -8.125 63.0625 C-18.91803797 67.78655556 -32.46513773 67.83954163 -43.4375 63.6875 C-46.9951719 62.14290451 -49.98073495 60.43397017 -53 58 C-52.48483718 53.56959974 -51.37841589 50.74297622 -49 47 C-48.10796875 47.42152344 -47.2159375 47.84304688 -46.296875 48.27734375 C-45.12640625 48.82519531 -43.9559375 49.37304688 -42.75 49.9375 C-41.58984375 50.48277344 -40.4296875 51.02804687 -39.234375 51.58984375 C-31.72078725 54.86569541 -23.00266065 55.46764224 -15.25 52.625 C-12.90474755 51.19554027 -12.90474755 51.19554027 -12 49 C-11.52182721 44.89398828 -11.52182721 44.89398828 -13.31640625 41.3984375 C-17.63740901 37.80929832 -23.53516333 36.85055086 -28.87524414 35.61938477 C-37.27488121 33.66497076 -43.97666564 31.87606969 -49.4375 24.875 C-51.95765827 20.23790878 -52.52774162 16.21024908 -52 11 C-49.85774118 4.3477226 -46.4173076 0.3389757 -40.5 -3.25 C-28.50602721 -9.24698639 -11.0944491 -7.14931106 0 0 Z " fill="#EB5E34" transform="translate(718,633)"/>
<path d="M0 0 C5.87115469 3.84850363 9.79538941 9.37623755 12 16 C13.1201503 24.33627644 11.90133366 31.11362621 7 38 C2.16636836 43.20046976 -2.35051314 46.2102659 -9.58496094 46.48168945 C-17.61991125 46.55166406 -22.96470067 45.84061225 -29 40 C-34.12916106 34.73586102 -36.16659088 29.41136433 -36.5 22.1875 C-36.29434417 15.04319536 -34.11510017 9.42022388 -29.28515625 4.1171875 C-21.37868369 -3.04535001 -9.73435182 -4.91684097 0 0 Z " fill="#FDFCFB" transform="translate(559,641)"/>
<path d="M0 0 C4.95 0 9.9 0 15 0 C19.67654507 10.02419555 24.11793052 20.12698369 28.47363281 30.29321289 C29.3059545 32.23409683 30.14114105 34.17372995 30.9765625 36.11328125 C31.46205566 37.24548096 31.94754883 38.37768066 32.44775391 39.54418945 C34.18950681 43.42190452 36.06969709 47.21353639 38 51 C38.72533936 49.32212402 38.72533936 49.32212402 39.46533203 47.61035156 C41.28467549 43.40427927 43.10850311 39.20016331 44.93359375 34.99658203 C45.71832 33.18753074 46.50187849 31.37797239 47.28417969 29.56787109 C51.60689242 19.56814304 55.99883544 9.6827659 61 0 C65.29 0 69.58 0 74 0 C71.77642435 7.09636188 68.98757557 13.78508798 65.9375 20.5625 C62.05868039 29.2627592 58.30767954 38.00156561 54.6875 46.8125 C51.42577236 54.73383856 48.00099651 62.41916451 44 70 C39.38 70 34.76 70 30 70 C28.67891854 66.95135047 27.35785484 63.90269324 26.03686523 60.85400391 C24.87660471 58.17642841 23.71591242 55.49904061 22.55493164 52.82177734 C19.78879314 46.44201937 17.02460907 40.06146265 14.27308655 33.67538452 C13.1086846 30.9732216 11.94262669 28.27177469 10.77645874 25.57037354 C10.22243041 24.28569527 9.66921197 23.00066739 9.11685181 21.715271 C5.55722588 13.40876582 5.55722588 13.40876582 1.62890625 5.2734375 C0 2 0 2 0 0 Z " fill="#479ACD" transform="translate(433,628)"/>
<path d="M0 0 C27.14979757 0 27.14979757 0 34.33984375 5.9296875 C39.73221635 12.49546148 41.50584303 17.64776651 41.30859375 26.1875 C40.53579978 33.23068559 37.51945035 38.18402966 32.171875 42.7109375 C21.01556408 49.33248894 14.35442792 47 0 47 C0 31.49 0 15.98 0 0 Z " fill="#FBFDFD" transform="translate(308,640)"/>
<path d="M0 0 C7.92 0 15.84 0 24 0 C24.09775422 18.37779343 23.7759091 36.64143654 23 55 C15.41 55 7.82 55 0 55 C0 36.85 0 18.7 0 0 Z " fill="#429ACB" transform="translate(418,450)"/>
<path d="M0 0 C3.135 -0.0825 6.27 -0.165 9.5 -0.25 C10.47130859 -0.28641602 11.44261719 -0.32283203 12.44335938 -0.36035156 C18.45828916 -0.43621113 23.02012533 0.50376287 28 4 C30.86634797 7.22464146 31.87974448 9.17324327 32.5 13.4375 C31.91584075 17.59963463 30.88637609 20.88209641 28 24 C22.49939968 27.81692298 17.04070625 27.34768003 10.625 27.1875 C5.365625 27.0946875 5.365625 27.0946875 0 27 C0 18.09 0 9.18 0 0 Z " fill="#FCFBFA" transform="translate(612,639)"/>
<path d="M0 0 C1.65 0 3.3 0 5 0 C4.38910147 3.70149729 3.33872392 6.76683551 1.75 10.16015625 C1.3065625 11.11857422 0.863125 12.07699219 0.40625 13.06445312 C-0.0578125 14.05380859 -0.521875 15.04316406 -1 16.0625 C-1.91978604 18.03109763 -2.83657765 20.00109783 -3.75 21.97265625 C-4.15734375 22.84156494 -4.5646875 23.71047363 -4.984375 24.60571289 C-5.88934615 26.73913886 -6.51797658 28.73887793 -7 31 C-8.98 31 -10.96 31 -13 31 C-8.75544583 20.62721376 -4.4503574 10.28635721 0 0 Z " fill="#EA673D" transform="translate(495,684)"/>
<path d="M0 0 C1.02574883 0.00848969 1.02574883 0.00848969 2.07221985 0.01715088 C4.25329024 0.03951684 6.43270878 0.08970735 8.61328125 0.140625 C10.0930752 0.16069 11.57289495 0.17894078 13.05273438 0.1953125 C16.67761885 0.23938026 20.30153881 0.30840678 23.92578125 0.390625 C23.92578125 0.720625 23.92578125 1.050625 23.92578125 1.390625 C23.06823242 1.38949707 22.21068359 1.38836914 21.32714844 1.38720703 C18.13582431 1.3971502 14.94622071 1.43374976 11.75537109 1.48828125 C10.37623821 1.50641495 8.99692399 1.51401443 7.61767578 1.51074219 C5.63167982 1.50787846 3.64576113 1.54642297 1.66015625 1.5859375 C-0.13083496 1.60164795 -0.13083496 1.60164795 -1.95800781 1.61767578 C-5.37151179 2.12773716 -5.37151179 2.12773716 -7.49511719 5.44091797 C-8.0162207 6.41432129 -8.53732422 7.38772461 -9.07421875 8.390625 C-9.76171875 6.640625 -9.76171875 6.640625 -10.07421875 4.390625 C-7.73448522 -0.37796428 -4.99341226 -0.0815251 0 0 Z " fill="#4FA0CE" transform="translate(439.07421875,346.609375)"/>
<path d="M0 0 C0.33 0.99 0.66 1.98 1 3 C-0.52533166 4.66098368 -2.07101399 6.30329348 -3.625 7.9375 C-4.91277344 9.31228516 -4.91277344 9.31228516 -6.2265625 10.71484375 C-9.28146026 13.2319074 -11.10502639 13.73157807 -15 14 C-14.34 13.484375 -13.68 12.96875 -13 12.4375 C-10.57444092 10.46673325 -8.18197288 8.47464244 -5.8125 6.4375 C-4.80123047 5.56931641 -4.80123047 5.56931641 -3.76953125 4.68359375 C-1.79044936 2.92449646 -1.79044936 2.92449646 0 0 Z " fill="#EFE7E1" transform="translate(579,682)"/>
<path d="M0 0 C1.32 0.33 2.64 0.66 4 1 C4 2.65 4 4.3 4 6 C2.02 6 0.04 6 -2 6 C-1.34 4.02 -0.68 2.04 0 0 Z " fill="#EC7148" transform="translate(484,709)"/>
<path d="M0 0 C0.99 0.66 1.98 1.32 3 2 C2.319375 2.5878125 2.319375 2.5878125 1.625 3.1875 C-0.27269457 5.30415932 -0.9638919 7.37519282 -2 10 C-2.99 10.495 -2.99 10.495 -4 11 C-3.48964169 6.6109185 -2.47785723 3.66291938 0 0 Z " fill="#EC6C4B" transform="translate(669,680)"/>
<path d="M0 0 C1.65 0 3.3 0 5 0 C4.67 0.99 4.34 1.98 4 3 C4 2.34 4 1.68 4 1 C3.34 1 2.68 1 2 1 C0.92474806 3.65228812 -0.09456151 6.28368454 -1 9 C-1.66 9 -2.32 9 -3 9 C-2.01 6.03 -1.02 3.06 0 0 Z " fill="#EC7956" transform="translate(495,684)"/>
</svg>
